<svg viewBox="0 0 800 800" xmlns="http://www.w3.org/2000/svg"><path d="M655.6781382854555,208.42781642041447 L655.7786527316268,181.89239483410864 M696.8491594731336,214.65411605576233 L696.9945715038197,188.11146239667994 M655.6781382854555,208.42781642041447 L696.8491594731336,214.65411605576233 M655.7786527316268,181.89239483410864 L696.9945715038197,188.11146239667994 M651.5159432689902,312.6428668280263 L651.6127750056323,285.98733654204017 M696.8491594731336,214.65411605576233 L651.5159432689902,312.6428668280263 M696.9945715038197,188.11146239667994 L651.6127750056323,285.98733654204017 M510.08254904817477,291.06392526003344 L510.024154406142,264.43310058717674 M651.5159432689902,312.6428668280263 L510.08254904817477,291.06392526003344 M651.6127750056323,285.98733654204017 L510.024154406142,264.43310058717674 M510.08254904817477,291.06392526003344 L655.6781382854555,208.42781642041447 M510.024154406142,264.43310058717674 L655.7786527316268,181.89239483410864 M302.7901126444649,408.7174917315413 L302.5016364896635,381.9530075901764 M451.27158030930923,324.44343654281005 L451.1483668815646,297.77443214041773 M302.7901126444649,408.7174917315413 L451.27158030930923,324.44343654281005 M302.5016364896635,381.9530075901764 L451.1483668815646,297.77443214041773 M656.9977718581274,463.4396049175461 L302.7901126444649,408.7174917315413 M543.462010135411,419.0964949262263 L302.5016364896635,381.9530075901764 M543.462010135411,419.0964949262263 L543.468633647711,427.14460391248076 M543.468633647711,427.14460391248076 L551.2004653876736,428.33724648463976 M551.1964175165123,420.2887361557938 L551.2004653876736,428.33724648463976 M567.355543387973,422.77962715713915 L551.1964175165123,420.2887361557938 M567.355543387973,422.77962715713915 L567.3542084462637,430.8289757368922 M567.3542084462637,430.8289757368922 L574.5749723043879,431.94278535056566 M574.5787140988296,423.8930621816901 L574.5749723043879,431.94278535056566 M585.5569880133121,425.5853381010022 L574.5787140988296,423.8930621816901 M585.5569880133121,425.5853381010022 L585.549587264092,433.6356304647713 M585.549587264092,433.6356304647713 L586.4459049274849,433.77388839407524 M586.4536045560002,425.7235495500744 L586.4459049274849,433.77388839407524 M597.7547391075425,427.46559281379507 L586.4536045560002,425.7235495500744 M597.7547391075425,427.46559281379507 L597.7432717555747,435.51651741259076 M597.7432717555747,435.51651741259076 L602.649448373941,436.27329917128515 M602.6625522982054,428.2221202457147 L602.649448373941,436.27329917128515 M657.1019282117871,436.6138232312287 L602.6625522982054,428.2221202457147 M656.9977718581274,463.4396049175461 L657.1019282117871,436.6138232312287 M702.8535248456668,362.9642159224975 L703.0073875280281,336.25140635464004 M451.27158030930923,324.44343654281005 L702.8535248456668,362.9642159224975 M451.1483668815646,297.77443214041773 L703.0073875280281,336.25140635464004 M702.8535248456668,362.9642159224975 L656.9977718581274,463.4396049175461 M682.9351505042252,361.03410874147374 L686.54296642291,362.89786224567433 M686.54296642291,362.89786224567433 L690.1427248473013,364.3772197291402 M682.9351505042252,361.03410874147374 L680.3168205025133,359.5439860456954 M680.3168205025133,359.5439860456954 L696.6540886836409,350.1415297957961 M699.8038399258145,343.255273423934 L696.6540886836409,350.1415297957961 M693.0102167068446,342.19306023164745 L695.3530366345308,342.35667327995316 M695.3530366345308,342.35667327995316 L697.631179170537,342.7157463685809 M697.631179170537,342.7157463685809 L699.8038399258145,343.255273423934 M682.0286732504035,344.682466286529 L684.8728171114004,343.37180423522585 M684.8728171114004,343.37180423522585 L687.8373654305141,342.57381892582896 M687.8373654305141,342.57381892582896 L690.3880928997414,342.24743202802046 M690.3880928997414,342.24743202802046 L693.0102167068446,342.19306023164745 M677.8119430825155,348.6599506833606 L678.7644913370193,347.20676101549606 M678.7644913370193,347.20676101549606 L680.2115134727014,345.8771138330093 M680.2115134727014,345.8771138330093 L682.0286732504035,344.682466286529 M677.4143114089246,353.0073197626714 L677.2305226887134,351.0590743999769 M677.2305226887134,351.0590743999769 L677.4056646423069,349.8491876100979 M677.4056646423069,349.8491876100979 L677.8119430825155,348.6599506833606 M677.4143114089246,353.0073197626714 L670.6264152678846,353.4905561543444 M677.2376462086256,341.575693846466 L673.4863957671519,344.2101023868463 M673.4863957671519,344.2101023868463 L671.3246171052044,346.66588931111704 M671.3246171052044,346.66588931111704 L670.2534615522156,349.1380064018747 M670.2534615522156,349.1380064018747 L670.10970371553,351.3208844185425 M670.10970371553,351.3208844185425 L670.6264152678846,353.4905561543444 M694.1568460167504,337.45833638098804 L689.164257003848,337.7090800069354 M689.164257003848,337.7090800069354 L684.4193664307304,338.61448181314654 M684.4193664307304,338.61448181314654 L680.6056618596035,339.91404684550525 M680.6056618596035,339.91404684550525 L677.2376462086256,341.575693846466 M702.0308457955318,338.38641095907934 L698.6034938008603,337.7728561061817 M698.6034938008603,337.7728561061817 L696.3934961678972,337.55145702210746 M696.3934961678972,337.55145702210746 L694.1568460167504,337.45833638098804 M703.0073875280281,336.25140635464004 L702.0308457955318,338.38641095907934 M546.9913886022548,416.4114998772825 L545.031536595084,417.70167779794826 M545.031536595084,417.70167779794826 L543.462010135411,419.0964949262263 M558.984568371709,413.0525264873629 L554.9818341685327,413.4839346781789 M554.9818341685327,413.4839346781789 L551.2715852990715,414.4589607246104 M551.2715852990715,414.4589607246104 L549.0317993760121,415.35884939790014 M549.0317993760121,415.35884939790014 L546.9913886022548,416.4114998772825 M570.2613978023556,415.53251718732014 L567.3350048515928,414.19438848166834 M567.3350048515928,414.19438848166834 L564.2830735404824,413.3962457059007 M564.2830735404824,413.3962457059007 L561.6653793824307,413.0846830738872 M561.6653793824307,413.0846830738872 L558.984568371709,413.0525264873629 M574.8205479627189,423.1742005150335 L574.9602269850551,420.9355683677311 M574.9602269850551,420.9355683677311 L574.3140170319931,419.16300167970985 M574.3140170319931,419.16300167970985 L573.1112958640015,417.6336795520538 M573.1112958640015,417.6336795520538 L571.8076062107659,416.53087252095185 M571.8076062107659,416.53087252095185 L570.2613978023556,415.53251718732014 M574.5787140988296,423.8930621816901 L574.8205479627189,423.1742005150335 M585.5569880133121,425.5853381010022 L585.9056587292989,425.38447819338046 M586.4536045560002,425.7235495500744 L585.9056587292989,425.38447819338046 M597.7547391075425,427.46559281379507 L594.5755380678315,425.6388101434811 M597.9025837452701,423.99562474641283 L594.5755380678315,425.6388101434811 M601.0053056309864,416.13802347695446 L601.908232689582,417.9890517525706 M601.908232689582,417.9890517525706 L601.9696395981949,419.54019644683785 M601.9696395981949,419.54019644683785 L601.4189336130519,420.9408479627429 M601.4189336130519,420.9408479627429 L600.3391660138421,422.23973876462003 M600.3391660138421,422.23973876462003 L599.213523564312,423.15801272805606 M599.213523564312,423.15801272805606 L597.9025837452701,423.99562474641283 M601.0053056309864,416.13802347695446 L574.9013152935559,401.15501938212867 M574.9013152935559,401.15501938212867 L581.1727132521864,397.551417701357 M581.1727132521864,397.551417701357 L617.9681853098891,418.6583723712245 M617.9681853098891,418.6583723712245 L611.8663682952806,422.1769064791423 M611.8663682952806,422.1769064791423 L607.5071553984353,419.791897219128 M603.6937391877756,427.6738528163359 L605.9339978959854,426.0706717003695 M605.9339978959854,426.0706717003695 L607.3044722901244,424.40207912785405 M607.3044722901244,424.40207912785405 L607.8973831029892,422.7761715964828 M607.8973831029892,422.7761715964828 L607.9137246258158,421.27735797854956 M607.9137246258158,421.27735797854956 L607.5071553984353,419.791897219128 M602.6625522982054,428.2221202457147 L603.6937391877756,427.6738528163359 M690.1427248473013,364.3772197291402 L657.1019282117871,436.6138232312287 M647.3125007183593,411.9983512968597 L641.0534447504299,415.61064250052004 M638.3832608425168,406.88628228637043 L647.3125007183593,411.9983512968597 M641.0534447504299,415.61064250052004 L632.1241853069859,410.4954974927711 M645.0441940136053,403.0453410557625 L638.3832608425168,406.88628228637043 M632.1241853069859,410.4954974927711 L625.2856504426154,414.4388504499092 M640.173819575385,400.25878639347985 L645.0441940136053,403.0453410557625 M625.2856504426154,414.4388504499092 L620.4152453952568,411.6470011238004 M633.5128751114605,404.09794326635796 L640.173819575385,400.25878639347985 M620.4152453952568,411.6470011238004 L627.2537898672119,407.7054812459239 M610.6897191889963,391.03148411248895 L633.5128751114605,404.09794326635796 M627.2537898672119,407.7054812459239 L604.4305975169708,394.6311676199552 M610.6897191889963,391.03148411248895 L607.9196652295294,389.65913705087553 M607.9196652295294,389.65913705087553 L604.7854564172135,388.622099005069 M604.7854564172135,388.622099005069 L603.0857723355455,388.2890903084207 M603.0857723355455,388.2890903084207 L601.3241382276923,388.114408337647 M600.2045904528065,393.25914136516855 L601.3132670987175,393.40240464702816 M601.3132670987175,393.40240464702816 L602.3787486323545,393.6916958597532 M602.3787486323545,393.6916958597532 L603.4394678460326,394.1172646325893 M603.4394678460326,394.1172646325893 L604.4305975169708,394.6311676199552 M601.3241382276923,388.114408337647 L599.161848838513,388.1499655746695 M599.161848838513,388.1499655746695 L597.0703176565485,388.47091934519426 M597.0703176565485,388.47091934519426 L595.1304154975143,389.03965378436914 M595.1304154975143,389.03965378436914 L593.7340363612317,389.6216957585723 M593.7340363612317,389.6216957585723 L592.4498497116426,390.29235725805415 M595.9864373956285,394.41707192242876 L597.271888025144,393.78889800316983 M597.271888025144,393.78889800316983 L598.4146229590377,393.4256295257394 M598.4146229590377,393.4256295257394 L599.3209303291407,393.2772361105206 M599.3209303291407,393.2772361105206 L599.7629668127682,393.2521013673331 M599.7629668127682,393.2521013673331 L600.2045904528065,393.25914136516855 M592.4498497116426,390.29235725805415 L590.2490149648414,391.75182921688105 M590.2490149648414,391.75182921688105 L588.3208987252304,393.4440060277478 M593.4142083928633,396.36367771537493 L595.9864373956285,394.41707192242876 M593.4142083928633,396.36367771537493 L588.3208987252304,393.4440060277478 M642.9097066934938,380.5657820988376 L638.4821956518133,382.04671278507016 M638.4821956518133,382.04671278507016 L635.9485336280272,382.6805868623648 M635.9485336280272,382.6805868623648 L633.8299112540954,383.0032307447559 M652.8794824994096,377.63438959159413 L647.7807928193397,378.90987751129836 M647.7807928193397,378.90987751129836 L642.9097066934938,380.5657820988376 M633.8299112540954,383.0032307447559 L632.2647797782837,383.0416962110877 M632.2647797782837,383.0416962110877 L630.890427602538,382.8926820828604 M630.890427602538,382.8926820828604 L629.72879446022,382.60888812352084 M629.72879446022,382.60888812352084 L628.8033584226966,382.26149484760043 M628.8033584226966,382.26149484760043 L627.9628920468593,381.8377928638253 M660.3933570656712,377.2074190739646 L657.8977962054477,377.0973014544917 M657.8977962054477,377.0973014544917 L655.3729845403616,377.2603534502373 M655.3729845403616,377.2603534502373 L652.8794824994096,377.63438959159413 M627.9628920468593,381.8377928638253 L626.9755901445974,381.12871922691204 M626.9755901445974,381.12871922691204 L626.3847238287759,380.3947283406349 M626.3847238287759,380.3947283406349 L626.1270150741411,379.68073922475014 M626.1270150741411,379.68073922475014 L626.1066985485221,379.04211831874824 M626.1066985485221,379.04211831874824 L626.251147466016,378.4010721871485 M666.4200838622362,379.11931958742804 L664.6234587124536,378.2498435622432 M664.6234587124536,378.2498435622432 L662.599799125715,377.5961697067122 M662.599799125715,377.5961697067122 L660.3933570656712,377.2074190739646 M626.251147466016,378.4010721871485 L627.0224211990896,377.0461581916466 M627.0224211990896,377.0461581916466 L628.5351218293129,375.59951009418455 M628.5351218293129,375.59951009418455 L630.4950461361361,374.306766819183 M670.2885374843595,385.6748816219328 L670.2429706975391,383.52349190337173 M670.2429706975391,383.52349190337173 L669.5196133184807,381.83769297164565 M669.5196133184807,381.83769297164565 L668.2550197694435,380.40413514953116 M668.2550197694435,380.40413514953116 L667.3971565327902,379.73473007182406 M667.3971565327902,379.73473007182406 L666.4200838622362,379.11931958742804 M630.4950461361361,374.306766819183 L632.8743360205901,373.13640581462613 M632.8743360205901,373.13640581462613 L635.5706504223824,372.26089510997866 M635.5706504223824,372.26089510997866 L637.0275814968875,371.97339852875035 M637.0275814968875,371.97339852875035 L638.536211759378,371.8049923950608 M663.7258935615172,393.05482643165686 L666.8829827697517,390.8884199620239 M666.8829827697517,390.8884199620239 L669.1736125119277,388.4044260354341 M669.1736125119277,388.4044260354341 L669.8920815540561,387.06131122333244 M669.8920815540561,387.06131122333244 L670.2885374843595,385.6748816219328 M638.536211759378,371.8049923950608 L640.7380111314397,371.79351142149056 M640.7380111314397,371.79351142149056 L642.6639433185696,372.0424180604676 M642.6639433185696,372.0424180604676 L644.281962262912,372.47216316049617 M644.281962262912,372.47216316049617 L645.2011866351042,372.8197645825677 M645.2011866351042,372.8197645825677 L646.0596710547413,373.22059672490866 M650.4128440768985,397.01593455762173 L654.6779884140913,396.483350594814 M654.6779884140913,396.483350594814 L658.6245837795071,395.4041964371538 M658.6245837795071,395.4041964371538 L661.2943447316037,394.3184695884785 M661.2943447316037,394.3184695884785 L663.7258935615172,393.05482643165686 M652.2951406166948,369.6337572649573 L646.0596710547413,373.22059672490866 M638.2719921024178,394.51438967549797 L641.4244045015724,395.9306162088727 M641.4244045015724,395.9306162088727 L644.3781487041906,396.68657551290903 M644.3781487041906,396.68657551290903 L647.3164021374163,397.0214355931417 M647.3164021374163,397.0214355931417 L648.8636828896858,397.0600320372407 M648.8636828896858,397.0600320372407 L650.4128440768985,397.01593455762173 M652.2951406166948,369.6337572649573 L649.94319451498,368.5378612513797 M649.94319451498,368.5378612513797 L647.2507952554168,367.7441663713471 M647.2507952554168,367.7441663713471 L644.326912703554,367.2695583084515 M638.2719921024178,394.51438967549797 L644.5546593638281,390.8953247886136 M644.326912703554,367.2695583084515 L641.0826949392467,367.10628327397365 M641.0826949392467,367.10628327397365 L637.839116801116,367.2992324287032 M637.839116801116,367.2992324287032 L634.6878698245165,367.8120787262 M651.191469490176,392.18898685130847 L648.7630800977935,392.138277733763 M648.7630800977935,392.138277733763 L646.8986180237058,391.8222550887642 M646.8986180237058,391.8222550887642 L645.654134885843,391.42266714934937 M645.654134885843,391.42266714934937 L644.5546593638281,390.8953247886136 M634.6878698245165,367.8120787262 L631.2992667586076,368.7257227747226 M631.2992667586076,368.7257227747226 L628.1877812132678,369.93608158957755 M628.1877812132678,369.93608158957755 L625.3681462452618,371.3784375836794 M658.54876927518,390.09786787542555 L656.3861713175047,391.13004726379137 M656.3861713175047,391.13004726379137 L653.9052217834255,391.8549705315092 M653.9052217834255,391.8549705315092 L652.5684575754652,392.0737666665909 M652.5684575754652,392.0737666665909 L651.191469490176,392.18898685130847 M625.3681462452618,371.3784375836794 L622.0548518852999,373.59825006338934 M622.0548518852999,373.59825006338934 L619.5409779133918,376.1245260965893 M619.5409779133918,376.1245260965893 L618.6949668573563,377.49415133437776 M618.6949668573563,377.49415133437776 L618.1769292183646,378.91548390715207 M662.3805765134632,386.17048244578706 L661.8596601776894,387.34532224348254 M661.8596601776894,387.34532224348254 L660.89169323543,388.4419274448034 M660.89169323543,388.4419274448034 L659.8064828601829,389.3024518368141 M659.8064828601829,389.3024518368141 L658.54876927518,390.09786787542555 M618.1769292183646,378.91548390715207 L618.0850444996207,380.91668078734233 M618.0850444996207,380.91668078734233 L618.7511549919093,382.6723161488974 M618.7511549919093,382.6723161488974 L619.9777799570579,384.13070548741393 M619.9777799570579,384.13070548741393 L620.9874296148505,384.94245557692227 M620.9874296148505,384.94245557692227 L622.1554884815636,385.6845988910215 M660.3881088406972,382.8284005430067 L661.4721481552259,383.60291033656983 M661.4721481552259,383.60291033656983 L662.1238116461718,384.4038266546784 M662.1238116461718,384.4038266546784 L662.4080675147171,385.1831805515733 M662.4080675147171,385.1831805515733 L662.4427113444572,385.6752833446589 M662.4427113444572,385.6752833446589 L662.3805765134632,386.17048244578706 M622.1554884815636,385.6845988910215 L624.0682644483281,386.6189069567672 M624.0682644483281,386.6189069567672 L626.2204819505438,387.32686919739007 M626.2204819505438,387.32686919739007 L628.570901915642,387.7450159259742 M655.163970033548,381.89605937111014 L656.5470953978854,381.81523750482825 M656.5470953978854,381.81523750482825 L657.770817651205,381.9159693581848 M657.770817651205,381.9159693581848 L658.8091994113107,382.15086322077696 M658.8091994113107,382.15086322077696 L659.6369878416485,382.4527694186968 M659.6369878416485,382.4527694186968 L660.3881088406972,382.8284005430067 M628.570901915642,387.7450159259742 L631.1755450578601,387.8548181684846 M631.1755450578601,387.8548181684846 L633.8053853263285,387.67762127297954 M633.8053853263285,387.67762127297954 L636.3967561308173,387.2784443412649 M646.4923651097702,384.35347986999835 L650.7645165859083,382.91689065073973 M650.7645165859083,382.91689065073973 L653.203885741972,382.2589390396685 M653.203885741972,382.2589390396685 L655.163970033548,381.89605937111014 M636.3967561308173,387.2784443412649 L641.5557447433988,385.9966340961077 M641.5557447433988,385.9966340961077 L646.4923651097702,384.35347986999835 M543.468633647711,427.14460391248076 L545.0367987386915,425.7499565653933 M545.0367987386915,425.7499565653933 L546.9968353929304,424.45870472847196 M546.9968353929304,424.45870472847196 L546.9913886022548,416.4114998772825 M551.5438995272042,428.13352806680854 L551.2004653876736,428.33724648463976 M558.2709094779608,426.17855508242604 L556.1391111351784,426.428365447277 M556.1391111351784,426.428365447277 L554.1048218825279,426.96672343196013 M554.1048218825279,426.96672343196013 L552.802740945771,427.48597084250696 M552.802740945771,427.48597084250696 L551.5438995272042,428.13352806680854 M564.8603311155973,427.7033794502532 L563.0260057679827,426.85177548505396 M563.0260057679827,426.85177548505396 L561.2707416195782,426.374227385178 M561.2707416195782,426.374227385178 L559.8022403236062,426.1896499235786 M559.8022403236062,426.1896499235786 L558.2709094779608,426.17855508242604 M567.3542084462637,430.8289757368922 L567.0947328981625,429.8175100116131 M567.0947328981625,429.8175100116131 L566.4163436008638,428.86930350483976 M566.4163436008638,428.86930350483976 L565.7313976803609,428.27229485922834 M565.7313976803609,428.27229485922834 L564.8603311155973,427.7033794502532 M574.8167258188488,431.22368184761325 L574.5749723043879,431.94278535056566 M570.2590961207464,423.57942596632415 L572.8080658283636,425.39550777282267 M572.8080658283636,425.39550777282267 L574.2768789471497,427.15396448067366 M574.2768789471497,427.15396448067366 L574.9300971356711,428.83708890325215 M574.9300971356711,428.83708890325215 L575.013627883475,430.00929350174 M575.013627883475,430.00929350174 L574.8167258188488,431.22368184761325 M558.9860211676141,421.0985996875217 L562.7525100991746,421.2233973840595 M562.7525100991746,421.2233973840595 L565.8603566193734,421.789610966231 M565.8603566193734,421.789610966231 L568.1442647023779,422.5480981332276 M568.1442647023779,422.5480981332276 L570.2590961207464,423.57942596632415 M546.9968353929304,424.45870472847196 L550.7456298740967,422.695934477786 M550.7456298740967,422.695934477786 L554.7418345531986,421.5760192443159 M554.7418345531986,421.5760192443159 L556.8328908728627,421.25701182932653 M556.8328908728627,421.25701182932653 L558.9860211676141,421.0985996875217 M551.1964175165123,420.2887361557938 L551.5399661572894,420.08508628676555 M551.5438995272042,428.13352806680854 L551.5399661572894,420.08508628676555 M564.8608347772774,419.65508241761205 L566.151765287511,420.5660807877889 M566.151765287511,420.5660807877889 L566.9582905326649,421.51337189390574 M566.9582905326649,421.51337189390574 L567.2415743150102,422.13751454743385 M567.2415743150102,422.13751454743385 L567.355543387973,422.77962715713915 M558.2692178303698,418.1307712442586 L560.0412945950089,418.1598128513222 M560.0412945950089,418.1598128513222 L561.747421251586,418.4268103781294 M561.747421251586,418.4268103781294 L563.3157434411196,418.91259335509613 M563.3157434411196,418.91259335509613 L564.115752289462,419.2615493466466 M564.115752289462,419.2615493466466 L564.8608347772774,419.65508241761205 M551.5399661572894,420.08508628676555 L553.5286803394262,419.12915975131517 M553.5286803394262,419.12915975131517 L555.7942103179819,418.4494268896551 M555.7942103179819,418.4494268896551 L557.01323313066,418.2414135347515 M557.01323313066,418.2414135347515 L558.2692178303698,418.1307712442586 M564.8603311155973,427.7033794502532 L564.8608347772774,419.65508241761205 M574.8167258188488,431.22368184761325 L574.8205479627189,423.1742005150335 M585.549587264092,433.6356304647713 L585.898141913733,433.4347030064786 M585.898141913733,433.4347030064786 L585.9056587292989,425.38447819338046 M585.898141913733,433.4347030064786 L586.4459049274849,433.77388839407524 M597.7432717555747,435.51651741259076 L594.5651319076621,433.6891204899159 M594.5651319076621,433.6891204899159 L594.5755380678315,425.6388101434811 M603.6802921658679,435.72484743042554 L602.649448373941,436.27329917128515 M607.4924470098653,427.8402403073208 L607.9485600591086,430.0776020819832 M607.9485600591086,430.0776020819832 L607.5453963223698,431.94574180094116 M607.5453963223698,431.94574180094116 L606.5231782839536,433.5091147169483 M606.5231782839536,433.5091147169483 L605.2919117358986,434.65102786955 M605.2919117358986,434.65102786955 L603.6802921658679,435.72484743042554 M611.8502047242795,430.2260522589593 L607.4924470098653,427.8402403073208 M617.9499942566629,426.70633385305086 L611.8502047242795,430.2260522589593 M581.1667873788808,405.5922604102277 L617.9499942566629,426.70633385305086 M574.8974732903145,409.1970792322746 L581.1667873788808,405.5922604102277 M600.9927667049424,424.1851362162973 L574.8974732903145,409.1970792322746 M597.8910704406278,432.04538241660106 L600.3251046269309,430.29055096166184 M600.3251046269309,430.29055096166184 L601.5129923217957,428.80654957960996 M601.5129923217957,428.80654957960996 L601.9877094444488,427.3825663124178 M601.9877094444488,427.3825663124178 L601.8615088087953,425.91062791900924 M601.8615088087953,425.91062791900924 L601.523489515374,425.0555687362008 M601.523489515374,425.0555687362008 L600.9927667049424,424.1851362162973 M594.5651319076621,433.6891204899159 L597.8910704406278,432.04538241660106 M603.6802921658679,435.72484743042554 L603.6937391877756,427.6738528163359 M690.1427248473013,364.3772197291402 L690.1006867780178,372.40682378613064 M690.1006867780178,372.40682378613064 L692.415118559979,367.3434646048307 M692.4579061061335,359.31558068184523 L692.415118559979,367.3434646048307 M692.9820380062524,358.1696711788166 L692.4579061061335,359.31558068184523 M692.9820380062524,358.1696711788166 L692.9390808768818,366.1971654816682 M692.9390808768818,366.1971654816682 L696.6099443933593,358.1662924115261 M696.6099443933593,358.1662924115261 L696.6540886836409,350.1415297957961 M699.8038399258145,343.255273423934 L699.7586786342176,351.27769004638714 M699.7586786342176,351.27769004638714 L701.9849661670094,346.4071672818015 M702.0308457955318,338.38641095907934 L701.9849661670094,346.4071672818015 M690.1006867780178,372.40682378613064 L686.5038575424364,370.92776878696674 M686.5038575424364,370.92776878696674 L682.8955131588158,369.0625768438238 M682.8955131588158,369.0625768438238 L682.9351505042252,361.03410874147374 M682.8955131588158,369.0625768438238 L680.2780558424467,367.57194761997175 M680.2780558424467,367.57194761997175 L680.3168205025133,359.5439860456954 M680.2780558424467,367.57194761997175 L696.6099443933593,358.1662924115261 M699.7586786342176,351.27769004638714 L697.5477819506636,350.73010686940006 M697.5477819506636,350.73010686940006 L695.2840321562513,350.3759230109907 M695.2840321562513,350.3759230109907 L692.967307654836,350.2151147476999 M692.967307654836,350.2151147476999 L693.0102167068446,342.19306023164745 M692.967307654836,350.2151147476999 L689.3137316216402,350.3662342962526 M689.3137316216402,350.3662342962526 L686.289640599959,350.93892144045 M686.289640599959,350.93892144045 L684.0603342849856,351.6908998610125 M684.0603342849856,351.6908998610125 L681.9893901459576,352.70536933770177 M681.9893901459576,352.70536933770177 L682.0286732504035,344.682466286529 M681.9893901459576,352.70536933770177 L680.0589930915523,353.98843839989104 M680.0589930915523,353.98843839989104 L678.6538241482788,355.314708653101 M678.6538241482788,355.314708653101 L677.774043098438,356.68420878036153 M677.774043098438,356.68420878036153 L677.8119430825155,348.6599506833606 M677.774043098438,356.68420878036153 L677.2384047059671,358.573690658043 M677.2384047059671,358.573690658043 L677.1952625210611,359.7898235171202 M677.1952625210611,359.7898235171202 L677.3765293409293,361.033057913735 M677.3765293409293,361.033057913735 L677.4143114089246,353.0073197626714 M677.3765293409293,361.033057913735 L670.5908801246425,361.51645875763563 M670.5908801246425,361.51645875763563 L670.6264152678846,353.4905561543444 M670.5908801246425,361.51645875763563 L670.0443240103008,358.64698636003664 M670.0443240103008,358.64698636003664 L670.6294581078574,355.9157101753796 M670.6294581078574,355.9157101753796 L672.3455159204676,353.32244546310767 M672.3455159204676,353.32244546310767 L674.4376733567404,351.4191498314478 M674.4376733567404,351.4191498314478 L677.199958742034,349.59753787476603 M677.199958742034,349.59753787476603 L677.2376462086256,341.575693846466 M677.199958742034,349.59753787476603 L681.4495421882457,347.58332445178706 M681.4495421882457,347.58332445178706 L686.027322969165,346.23844763873853 M686.027322969165,346.23844763873853 L689.9630841156157,345.64068163614337 M689.9630841156157,345.64068163614337 L694.1135746748845,345.4787760777066 M694.1135746748845,345.4787760777066 L694.1568460167504,337.45833638098804 M694.1135746748845,345.4787760777066 L697.6705822757237,345.6884787160814 M697.6705822757237,345.6884787160814 L699.846051425,345.9844077612325 M699.846051425,345.9844077612325 L701.9849661670094,346.4071672818015 M558.9860211676141,421.0985996875217 L558.984568371709,413.0525264873629 M570.2590961207464,423.57942596632415 L570.2613978023556,415.53251718732014 M597.8910704406278,432.04538241660106 L597.9025837452701,423.99562474641283 M600.9927667049424,424.1851362162973 L601.0053056309864,416.13802347695446 M574.8974732903145,409.1970792322746 L574.9013152935559,401.15501938212867 M581.1667873788808,405.5922604102277 L581.1727132521864,397.551417701357 M617.9499942566629,426.70633385305086 L617.9681853098891,418.6583723712245 M611.8502047242795,430.2260522589593 L611.8663682952806,422.1769064791423 M607.4924470098653,427.8402403073208 L607.5071553984353,419.791897219128 M647.2845520229176,420.0440692123226 L641.0275717021651,423.65757759660374 M641.0275717021651,423.65757759660374 L641.0534447504299,415.61064250052004 M647.2845520229176,420.0440692123226 L647.3125007183593,411.9983512968597 M638.3582950185718,414.9302764262073 L647.2845520229176,420.0440692123226 M638.3582950185718,414.9302764262073 L638.3832608425168,406.88628228637043 M641.0275717021651,423.65757759660374 L632.1012951497501,418.54070880049505 M632.1012951497501,418.54070880049505 L632.1241853069859,410.4954974927711 M645.017020632264,411.08803908703646 L638.3582950185718,414.9302764262073 M645.017020632264,411.08803908703646 L645.0441940136053,403.0453410557625 M632.1012951497501,418.54070880049505 L625.2650295468463,422.4853907837794 M625.2650295468463,422.4853907837794 L625.2856504426154,414.4388504499092 M640.148272100816,408.3005436020599 L645.017020632264,411.08803908703646 M640.148272100816,408.3005436020599 L640.173819575385,400.25878639347985 M625.2650295468463,422.4853907837794 L620.3962504368035,419.692600611341 M620.3962504368035,419.692600611341 L620.4152453952568,411.6470011238004 M633.489535205553,412.1409965749749 L640.148272100816,408.3005436020599 M633.489535205553,412.1409965749749 L633.5128751114605,404.09794326635796 M620.3962504368035,419.692600611341 L627.2325256377019,415.74975171493344 M627.2325256377019,415.74975171493344 L627.2537898672119,407.7054812459239 M610.6739884822443,399.07012283829806 L633.489535205553,412.1409965749749 M610.6739884822443,399.07012283829806 L610.6897191889963,391.03148411248895 M627.2325256377019,415.74975171493344 L604.4169425229438,402.6710234658803 M604.4169425229438,402.6710234658803 L604.4305975169708,394.6311676199552 M601.311522632043,396.1520602185135 L603.8373055960428,396.45674644223413 M603.8373055960428,396.45674644223413 L606.364501022746,397.1187859784365 M606.364501022746,397.1187859784365 L608.518577688678,397.96470026852353 M608.518577688678,397.96470026852353 L610.6739884822443,399.07012283829806 M601.311522632043,396.1520602185135 L601.3241382276923,388.114408337647 M604.4169425229438,402.6710234658803 L602.9663552410251,401.9560785201116 M602.9663552410251,401.9560785201116 L601.5581867392025,401.49860146220766 M601.5581867392025,401.49860146220766 L600.869979750742,401.3663938472277 M600.869979750742,401.3663938472277 L600.1923415201081,401.29853338820107 M600.1923415201081,401.29853338820107 L600.2045904528065,393.25914136516855 M592.440180433622,398.33074598234896 L595.2906656618344,397.01652500372734 M595.2906656618344,397.01652500372734 L597.6776023230595,396.38309899136385 M597.6776023230595,396.38309899136385 L599.4756067939734,396.1635308446549 M599.4756067939734,396.1635308446549 L601.311522632043,396.1520602185135 M592.440180433622,398.33074598234896 L592.4498497116426,390.29235725805415 M600.1923415201081,401.29853338820107 L599.5149228967849,401.3009678706327 M599.5149228967849,401.3009678706327 L598.8273734813132,401.37964235854577 M598.8273734813132,401.37964235854577 L598.1296799643009,401.5345598522386 M598.1296799643009,401.5345598522386 L597.1836116474877,401.859732441691 M597.1836116474877,401.859732441691 L596.5831415311599,402.1318101381335 M596.5831415311599,402.1318101381335 L595.975589304341,402.4568553987095 M595.975589304341,402.4568553987095 L595.9864373956285,394.41707192242876 M588.3125991692078,401.48346055163506 L590.2408357670262,399.79013001820994 M590.2408357670262,399.79013001820994 L592.440180433622,398.33074598234896 M588.3125991692078,401.48346055163506 L588.3208987252304,393.4440060277478 M595.975589304341,402.4568553987095 L593.404213633616,404.4041190990556 M593.404213633616,404.4041190990556 L593.4142083928633,396.36367771537493 M593.404213633616,404.4041190990556 L588.3125991692078,401.48346055163506 M633.8065070945323,391.0391523793299 L636.2894440113347,390.63864192291123 M636.2894440113347,390.63864192291123 L639.3151801665537,389.8258279042436 M639.3151801665537,389.8258279042436 L642.8832928505052,388.6008780930128 M642.8832928505052,388.6008780930128 L642.9097066934938,380.5657820988376 M633.8065070945323,391.0391523793299 L633.8299112540954,383.0032307447559 M642.8832928505052,388.6008780930128 L648.2540608287507,386.7946693142279 M648.2540608287507,386.7946693142279 L652.8497660167448,385.66849219458265 M652.8497660167448,385.66849219458265 L652.8794824994096,377.63438959159413 M627.9414381906272,389.8733197691063 L629.3732854795315,390.53274190772544 M629.3732854795315,390.53274190772544 L630.7579439971652,390.9082726981813 M630.7579439971652,390.9082726981813 L632.0818562902988,391.0696687158375 M632.0818562902988,391.0696687158375 L632.9303473499452,391.08588465499207 M632.9303473499452,391.08588465499207 L633.8065070945323,391.0391523793299 M627.9414381906272,389.8733197691063 L627.9628920468593,381.8377928638253 M652.8497660167448,385.66849219458265 L656.4116969330114,385.195837540734 M656.4116969330114,385.195837540734 L658.4562383393912,385.13022668752467 M658.4562383393912,385.13022668752467 L660.361147774618,385.24137694528486 M660.361147774618,385.24137694528486 L660.3933570656712,377.2074190739646 M626.2302679520061,386.4354346497982 L626.0789879187781,387.49744017143934 M626.0789879187781,387.49744017143934 L626.3306727428137,388.36866084647346 M626.3306727428137,388.36866084647346 L626.8714004704658,389.0842161337449 M626.8714004704658,389.0842161337449 L627.3504012165813,389.49099289100053 M627.3504012165813,389.49099289100053 L627.9414381906272,389.8733197691063 M626.2302679520061,386.4354346497982 L626.251147466016,378.4010721871485 M660.361147774618,385.24137694528486 L662.4986248008247,385.61348148096926 M662.4986248008247,385.61348148096926 L664.5068275806577,386.25096942844317 M664.5068275806577,386.25096942844317 L666.3858688284375,387.15392546351717 M666.3858688284375,387.15392546351717 L666.4200838622362,379.11931958742804 M630.4727655440578,382.3397411787071 L628.4271258647594,383.70034600963504 M628.4271258647594,383.70034600963504 L627.012888533942,385.06557614744753 M627.012888533942,385.06557614744753 L626.2302679520061,386.4354346497982 M630.4727655440578,382.3397411787071 L630.4950461361361,374.306766819183 M666.3858688284375,387.15392546351717 L668.4516034694492,388.65006891972916 M668.4516034694492,388.65006891972916 L669.6647743613663,390.1700915773496 M669.6647743613663,390.1700915773496 L670.2332189897954,391.67874952923603 M670.2332189897954,391.67874952923603 L670.3364560280029,392.67013313808326 M670.3364560280029,392.67013313808326 L670.2530188689004,393.71170784998736 M670.2530188689004,393.71170784998736 L670.2885374843595,385.6748816219328 M638.5112681504974,379.8371181137444 L636.0265684044082,380.18451203061295 M636.0265684044082,380.18451203061295 L633.6046510454223,380.8776174175249 M633.6046510454223,380.8776174175249 L632.0248309184097,381.53180264201245 M632.0248309184097,381.53180264201245 L630.4727655440578,382.3397411787071 M638.5112681504974,379.8371181137444 L638.536211759378,371.8049923950608 M670.2530188689004,393.71170784998736 L669.3860107740906,396.04596904629534 M669.3860107740906,396.04596904629534 L667.5753832732663,398.2778284482633 M667.5753832732663,398.2778284482633 L665.8438239045602,399.70878661541417 M665.8438239045602,399.70878661541417 L663.6925341076643,401.09414937569125 M663.6925341076643,401.09414937569125 L663.7258935615172,393.05482643165686 M646.0322282781518,381.2532026812679 L643.9576806036821,380.4087483173161 M643.9576806036821,380.4087483173161 L641.9574723685503,379.9563012894183 M641.9574723685503,379.9563012894183 L640.2744361935609,379.804358199027 M640.2744361935609,379.804358199027 L638.5112681504974,379.8371181137444 M646.0322282781518,381.2532026812679 L646.0596710547413,373.22059672490866 M663.6925341076643,401.09414937569125 L659.4550949727478,403.12642538302737 M659.4550949727478,403.12642538302737 L655.0186421032689,404.4473977492318 M655.0186421032689,404.4473977492318 L652.7260110670691,404.8409869133508 M652.7260110670691,404.8409869133508 L650.3838995360885,405.0565963419033 M650.3838995360885,405.0565963419033 L650.4128440768985,397.01593455762173 M652.2656378084458,377.66514618547563 L646.0322282781518,381.2532026812679 M652.2656378084458,377.66514618547563 L652.2951406166948,369.6337572649573 M650.3838995360885,405.0565963419033 L646.6999664743555,405.0238561593388 M646.6999664743555,405.0238561593388 L643.6416539379669,404.5877042841192 M643.6416539379669,404.5877042841192 L641.0977633461587,403.86581820413664 M641.0977633461587,403.86581820413664 L639.6352025376635,403.26867168872394 M639.6352025376635,403.26867168872394 L638.2470889913329,402.5542060479029 M638.2470889913329,402.5542060479029 L638.2719921024178,394.51438967549797 M644.3000581974054,375.30014465207285 L647.2759963229363,375.78685029187886 M647.2759963229363,375.78685029187886 L649.931143761461,376.57514441254676 M649.931143761461,376.57514441254676 L652.2656378084458,377.66514618547563 M644.3000581974054,375.30014465207285 L644.326912703554,367.2695583084515 M638.2470889913329,402.5542060479029 L644.5276761564353,398.93391746230867 M644.5276761564353,398.93391746230867 L644.5546593638281,390.8953247886136 M634.6642108056309,375.84284926716015 L637.9267219027879,375.31737219306206 M637.9267219027879,375.31737219306206 L641.138577807998,375.1364810698079 M641.138577807998,375.1364810698079 L644.3000581974054,375.30014465207285 M634.6642108056309,375.84284926716015 L634.6878698245165,367.8120787262 M644.5276761564353,398.93391746230867 L646.0305792332263,399.61123213781286 M646.0305792332263,399.61123213781286 L647.5656648448706,400.0134490066687 M647.5656648448706,400.0134490066687 L649.0949904235049,400.207445973889 M649.0949904235049,400.207445973889 L650.1023207472966,400.2476760169217 M650.1023207472966,400.2476760169217 L651.1622778466648,400.2280170287779 M651.1622778466648,400.2280170287779 L651.191469490176,392.18898685130847 M625.3475719014806,379.41041857368594 L629.3533374998561,377.4607248072649 M629.3533374998561,377.4607248072649 L631.9665435157644,376.53805071612527 M631.9665435157644,376.53805071612527 L634.6642108056309,375.84284926716015 M625.3475719014806,379.41041857368594 L625.3681462452618,371.3784375836794 M651.1622778466648,400.2280170287779 L653.5247415009932,399.962069350291 M653.5247415009932,399.962069350291 L655.7535548457339,399.3861364596866 M655.7535548457339,399.3861364596866 L657.1651015983042,398.83001044368865 M657.1651015983042,398.83001044368865 L658.5171381938015,398.1361908107937 M658.5171381938015,398.1361908107937 L658.54876927518,390.09786787542555 M618.158729036684,386.9500207064088 L619.3785130447924,384.3559644028513 M619.3785130447924,384.3559644028513 L621.7750248796611,381.84279739584895 M621.7750248796611,381.84279739584895 L625.3475719014806,379.41041857368594 M618.158729036684,386.9500207064088 L618.1769292183646,378.91548390715207 M658.5171381938015,398.1361908107937 L660.4568524821278,396.8263313721124 M660.4568524821278,396.8263313721124 L661.7336283755942,395.51675994538823 M661.7336283755942,395.51675994538823 L662.123483257406,394.8620814947368 M662.123483257406,394.8620814947368 L662.3476830594076,394.2074764356434 M662.3476830594076,394.2074764356434 L662.3805765134632,386.17048244578706 M622.1359565880038,393.7214284085207 L619.9045362149839,392.1164904814376 M619.9045362149839,392.1164904814376 L618.628548620098,390.5307172347599 M618.628548620098,390.5307172347599 L618.0731238121231,388.98912703937765 M618.0731238121231,388.98912703937765 L618.010311268536,387.98993323388544 M618.010311268536,387.98993323388544 L618.158729036684,386.9500207064088 M622.1359565880038,393.7214284085207 L622.1554884815636,385.6845988910215 M662.3476830594076,394.2074764356434 L662.3696419721285,393.189677842682 M662.3696419721285,393.189677842682 L662.0353451551971,392.346493821669 M662.0353451551971,392.346493821669 L661.447736569925,391.64660470527053 M661.447736569925,391.64660470527053 L660.9529032900427,391.244929461278 M660.9529032900427,391.244929461278 L660.3558861737041,390.8642629680723 M660.3558861737041,390.8642629680723 L660.3881088406972,382.8284005430067 M628.549235503415,395.7825428079452 L626.2998527991232,395.3892761194709 M626.2998527991232,395.3892761194709 L624.1620471641571,394.7022043129247 M624.1620471641571,394.7022043129247 L622.1359565880038,393.7214284085207 M628.549235503415,395.7825428079452 L628.570901915642,387.7450159259742 M660.3558861737041,390.8642629680723 L659.0766263483528,390.2830693036778 M659.0766263483528,390.2830693036778 L657.9695357698707,389.99092886468827 M657.9695357698707,389.99092886468827 L656.8878513709489,389.86295039838706 M656.8878513709489,389.86295039838706 L656.0265051245486,389.85744720641327 M656.0265051245486,389.85744720641327 L655.1334844536474,389.93160601282034 M655.1334844536474,389.93160601282034 L655.163970033548,381.89605937111014 M636.3724909631288,395.31581332901055 L632.6714334735535,395.8209552216966 M632.6714334735535,395.8209552216966 L630.5402726970206,395.89478664034175 M630.5402726970206,395.89478664034175 L628.549235503415,395.7825428079452 M636.3724909631288,395.31581332901055 L636.3967561308173,387.2784443412649 M655.1334844536474,389.93160601282034 L651.4948905560557,390.73067043326216 M651.4948905560557,390.73067043326216 L646.4647531144386,392.38985873450895 M646.4647531144386,392.38985873450895 L646.4923651097702,384.35347986999835 M646.4647531144386,392.38985873450895 L641.0782987667546,394.1661608206202 M641.0782987667546,394.1661608206202 L636.3724909631288,395.31581332901055 M558.2709094779608,426.17855508242604 L558.2692178303698,418.1307712442586 M692.1377201046439,367.20418715778624 L692.415118559979,367.3434646048307 M691.6616348146206,366.93322023460286 L692.1377201046439,367.20418715778624 M692.9390808768818,366.1971654816682 L691.6616348146206,366.93322023460286 M692.4579061061335,359.31558068184523 L692.1804151915435,359.1763505704762 M692.1377201046439,367.20418715778624 L692.1804151915435,359.1763505704762 M692.9820380062524,358.1696711788166 L691.7041711096572,358.9054757428296 M691.7041711096572,358.9054757428296 L692.1804151915435,359.1763505704762 M691.6616348146206,366.93322023460286 L691.7041711096572,358.9054757428296 M91.35199514089197,528.7240343912517 L90.82419565428864,501.8258455422399 M242.80759546388822,442.76194214501066 L242.45170224141003,415.9592578961372 M91.35199514089197,528.7240343912517 L242.80759546388822,442.76194214501066 M90.82419565428864,501.8258455422399 L242.45170224141003,415.9592578961372 M662.6210461188973,618.1076051658914 L91.35199514089197,528.7240343912517 M342.07851931085054,541.051374974206 L90.82419565428864,501.8258455422399 M342.07851931085054,541.051374974206 L342.1529640640341,549.140129010827 M342.1529640640341,549.140129010827 L359.45017791457764,551.842346710527 M359.45017791457764,551.842346710527 L359.3815393668136,543.7527017164729 M383.54851775904785,547.5256261553782 L359.3815393668136,543.7527017164729 M383.54851775904785,547.5256261553782 L383.60904249348675,555.6165148660791 M383.60904249348675,555.6165148660791 L392.6858678587548,557.0345116340392 M392.62839290485147,548.9431558492122 L392.6858678587548,557.0345116340392 M662.7328745730625,591.111554552159 L392.62839290485147,548.9431558492122 M662.6210461188973,618.1076051658914 L662.7328745730625,591.111554552159 M242.80759546388822,442.76194214501066 L709.0131024121863,515.048669132847 M709.0131024121863,515.048669132847 L709.1758043457114,488.16558264369155 M536.6553790316857,461.47515634171964 L709.1758043457114,488.16558264369155 M536.6553790316857,461.47515634171964 L536.6643009318879,469.5374827925229 M536.6643009318879,469.5374827925229 L527.439702624649,468.10940091644176 M527.439702624649,468.10940091644176 L527.4276979107785,460.0475517861474 M525.6819441964775,459.7774697542303 L527.4276979107785,460.0475517861474 M525.6819441964775,459.7774697542303 L525.6945320552759,467.83922856970565 M525.6945320552759,467.83922856970565 L487.1179648849675,461.8671029402584 M487.1179648849675,461.8671029402584 L487.09249342704493,453.807341555355 M242.45170224141003,415.9592578961372 L487.09249342704493,453.807341555355 M709.0131024121863,515.048669132847 L662.6210461188973,618.1076051658914 M536.6553790316857,461.47515634171964 L539.0818632916779,464.1471528450953 M539.0818632916779,464.1471528450953 L533.9928431986447,467.081670666647 M533.9928431986447,467.081670666647 L497.0740182607435,455.86337013994773 M497.0740182607435,455.86337013994773 L518.0950556513396,476.24892487825355 M518.0950556513396,476.24892487825355 L511.76340736612246,479.89998822504657 M511.76340736612246,479.89998822504657 L487.09249342704493,453.807341555355 M342.07851931085054,541.051374974206 L336.81583740221043,537.9610766529561 M336.81583740221043,537.9610766529561 L343.23108175304856,534.2748195412659 M343.23108175304856,534.2748195412659 L359.3815393668136,543.7527017164729 M384.20693216461746,547.1565873416412 L383.54851775904785,547.5256261553782 M387.4825777140518,539.137165043687 L388.3615053154548,541.0263056979626 M388.3615053154548,541.0263056979626 L388.39569400173514,542.6093852274328 M388.39569400173514,542.6093852274328 L387.81418333001983,544.0388865944303 M387.81418333001983,544.0388865944303 L386.70002983230336,545.3645267771374 M386.70002983230336,545.3645267771374 L385.5463589576706,546.3017162181221 M385.5463589576706,546.3017162181221 L384.20693216461746,547.1565873416412 M387.4825777140518,539.137165043687 L361.3806866865211,523.8458932835094 M361.3806866865211,523.8458932835094 L367.78101401795936,520.1682076253511 M367.78101401795936,520.1682076253511 L404.5739492187072,541.7094072223642 M404.5739492187072,541.7094072223642 L398.3464654163095,545.3004054631804 M398.3464654163095,545.3004054631804 L393.9854091618341,542.8662746368819 M392.62839290485147,548.9431558492122 L393.8908728755796,547.2126007551492 M393.8908728755796,547.2126007551492 L394.39617544693965,545.3588179827851 M394.39617544693965,545.3588179827851 L394.32917007771994,544.1056999822008 M394.32917007771994,544.1056999822008 L393.9854091618341,542.8662746368819 M709.1758043457114,488.16558264369155 L662.7328745730625,591.111554552159 M410.6564726365316,538.4394580039408 L404.7988030750567,535.0118917427499 M410.6564726365316,538.4394580039408 L411.78522737185637,538.1231289117468 M411.78522737185637,538.1231289117468 L412.8934774160086,537.6544089439856 M412.8934774160086,537.6544089439856 L413.967566465062,537.0841421499591 M408.18229950403213,533.3386677992678 L404.7988030750567,535.0118917427499 M413.967566465062,537.0841421499591 L416.2537385843936,535.451651307601 M416.2537385843936,535.451651307601 L417.66326198704905,533.7525494621933 M417.66326198704905,533.7525494621933 L418.2874468383382,532.0969275004103 M418.2874468383382,532.0969275004103 L418.3278084141318,530.5707171098883 M418.3278084141318,530.5707171098883 L417.94118888076673,529.0581135177916 M411.4384013047337,525.3374830804431 L412.3200548111255,527.222328579186 M412.3200548111255,527.222328579186 L412.35732658125255,528.8018083004616 M412.35732658125255,528.8018083004616 L411.77929666736475,530.2280586821093 M411.77929666736475,530.2280586821093 L410.6690253648044,531.5506837399496 M410.6690253648044,531.5506837399496 L409.5185157720449,532.4857413761227 M409.5185157720449,532.4857413761227 L408.18229950403213,533.3386677992678 M422.3020815763316,531.4867082753714 L417.94118888076673,529.0581135177916 M411.4384013047337,525.3374830804431 L385.33600302390755,510.0809530283592 M428.5154025663719,527.9038768376934 L422.3020815763316,531.4867082753714 M385.33600302390755,510.0809530283592 L391.7218001922776,506.4116165326044 M391.7218001922776,506.4116165326044 L428.5154025663719,527.9038768376934 M448.072624049374,494.11079770371697 L443.43035419676096,491.8260851847763 M443.43035419676096,491.8260851847763 L438.6636464429764,490.2719550799591 M438.6636464429764,490.2719550799591 L434.52025326685975,489.496056866487 M434.52025326685975,489.496056866487 L430.19343820756774,489.19549271641137 M448.072624049374,494.11079770371697 L449.2287776176854,494.78362530254094 M430.19343820756774,489.19549271641137 L425.13173693906447,489.45265460875953 M425.13173693906447,489.45265460875953 L420.30620726191967,490.38123306361365 M420.30620726191967,490.38123306361365 L416.41486172172984,491.714067742756 M416.41486172172984,491.714067742756 L412.96674511526294,493.41825928571 M456.8956271771915,501.69433540368084 L454.978525054536,499.1733294393664 M454.978525054536,499.1733294393664 L452.3767761001568,496.86277559389526 M452.3767761001568,496.86277559389526 L449.2287776176854,494.78362530254094 M412.96674511526294,493.41825928571 L409.10868884756405,496.12013116988516 M409.10868884756405,496.12013116988516 L406.86431929796765,498.63882086533084 M406.86431929796765,498.63882086533084 L405.7240784899575,501.174272327484 M405.7240784899575,501.174272327484 L405.5295257354245,503.41308566724666 M405.5295257354245,503.41308566724666 L406.0041486262421,505.63836464466647 M457.7211425484446,509.0295102791395 L458.23854273659526,506.56927373779325 M458.23854273659526,506.56927373779325 L457.9430423995425,504.0988879113189 M457.9430423995425,504.0988879113189 L456.8956271771915,501.69433540368084 M412.8893229325829,505.1427423351895 L406.0041486262421,505.63836464466647 M451.91310794418985,515.2019072818156 L454.5341759149362,513.3761794313141 M454.5341759149362,513.3761794313141 L456.4883305009407,511.29287931075254 M456.4883305009407,511.29287931075254 L457.7211425484446,509.0295102791395 M412.8893229325829,505.1427423351895 L412.74688074130125,503.1445663281926 M412.74688074130125,503.1445663281926 L412.9513824886751,501.90367610825143 M412.9513824886751,501.90367610825143 L413.38949942305703,500.68396802463803 M435.87839077423007,518.9560546593996 L440.01356316380304,518.8981394690512 M440.01356316380304,518.8981394690512 L444.01926614972376,518.2935514817348 M444.01926614972376,518.2935514817348 L447.70910151545377,517.1922554103849 M447.70910151545377,517.1922554103849 L449.8983304195442,516.2611393039942 M449.8983304195442,516.2611393039942 L451.91310794418985,515.2019072818156 M413.38949942305703,500.68396802463803 L414.38675643965223,499.1935482833404 M414.38675643965223,499.1935482833404 L415.8820072775869,497.8298401760319 M415.8820072775869,497.8298401760319 L417.74907511313074,496.60459322139144 M418.30052266090513,513.3753335638357 L423.44462662525996,515.9786432478289 M423.44462662525996,515.9786432478289 L428.6955662814943,517.8098625616727 M428.6955662814943,517.8098625616727 L432.2018514692386,518.5660300602913 M432.2018514692386,518.5660300602913 L435.87839077423007,518.9560546593996 M417.74907511313074,496.60459322139144 L420.65879006379157,495.26036378457377 M420.65879006379157,495.26036378457377 L423.67894315998296,494.4419431008825 M423.67894315998296,494.4419431008825 L426.2694375157946,494.1071982568687 M426.2694375157946,494.1071982568687 L428.92613989931465,494.051434158398 M418.30052266090513,513.3753335638357 L415.6822372595983,511.8469943311429 M428.92613989931465,494.051434158398 L432.52415583907714,494.3899359248869 M432.52415583907714,494.3899359248869 L435.9075665548662,495.178806643077 M435.9075665548662,495.178806643077 L438.54119764345853,496.14541434640273 M438.54119764345853,496.14541434640273 L440.92836279501023,497.3172952287931 M415.6822372595983,511.8469943311429 L440.92836279501023,497.3172952287931 M455.62152127982563,491.1037781808945 L455.0774312073015,490.7873368356088 M455.62152127982563,491.1037781808945 L460.8405279950566,493.748212190314 M460.8405279950566,493.748212190314 L466.14036476831734,495.64042624250106 M466.14036476831734,495.64042624250106 L469.6674469707842,496.4617360354505 M469.6674469707842,496.4617360354505 L473.37016665015744,496.9510350916066 M445.451555581806,480.6600843628257 L446.8016944767269,483.73746039625615 M446.8016944767269,483.73746039625615 L449.2459263864321,486.58744765742074 M449.2459263864321,486.58744765742074 L451.95050579797817,488.7817486093005 M451.95050579797817,488.7817486093005 L455.0774312073015,490.7873368356088 M473.37016665015744,496.9510350916066 L477.6639784470308,497.0254215083044 M477.6639784470308,497.0254215083044 L481.4498033909548,496.57969218792243 M481.4498033909548,496.57969218792243 L484.63089780340204,495.7602024246113 M484.63089780340204,495.7602024246113 L486.9624615897685,494.8537821726275 M486.9624615897685,494.8537821726275 L489.07009471044364,493.7744119894134 M450.8463686647293,471.6537018038715 L447.7272610576424,473.9237325323974 M447.7272610576424,473.9237325323974 L446.0545299587062,476.05760689949886 M446.0545299587062,476.05760689949886 L445.3336316399217,478.1855944584433 M445.3336316399217,478.1855944584433 L445.2766293300881,479.4240928712825 M445.2766293300881,479.4240928712825 L445.451555581806,480.6600843628257 M489.07009471044364,493.7744119894134 L492.28498319530433,491.48072115938214 M492.28498319530433,491.48072115938214 L494.0878505285999,489.3373329933166 M494.0878505285999,489.3373329933166 L494.93068550465216,487.1887232602872 M494.93068550465216,487.1887232602872 L495.0372411047822,486.0528933930809 M495.0372411047822,486.0528933930809 L494.93263169021543,484.91640174009376 M466.6405994063015,468.2637596366587 L462.4998038010573,468.22375516898387 M462.4998038010573,468.22375516898387 L458.4622778469062,468.75396354790144 M458.4622778469062,468.75396354790144 L454.74624935801705,469.82252801259517 M454.74624935801705,469.82252801259517 L452.7143571274851,470.6775310442009 M452.7143571274851,470.6775310442009 L450.8463686647293,471.6537018038715 M514.4635425391389,496.24827372365263 L494.93263169021543,484.91640174009376 M466.6405994063015,468.2637596366587 L462.70491544948004,465.6240799841958 M520.8029482858731,492.5873153464461 L514.4635425391389,496.24827372365263 M462.70491544948004,465.6240799841958 L468.53006821571944,462.27689480512686 M468.53006821571944,462.27689480512686 L520.8029482858731,492.5873153464461 M342.1529640640341,549.140129010827 L336.8920333442802,546.0488109443143 M336.8920333442802,546.0488109443143 L336.81583740221043,537.9610766529561 M343.30509739312663,542.3613367384144 L359.45017791457764,551.842346710527 M336.8920333442802,546.0488109443143 L343.30509739312663,542.3613367384144 M343.30509739312663,542.3613367384144 L343.23108175304856,534.2748195412659 M383.60904249348675,555.6165148660791 L384.2672334298459,555.2473544362642 M384.2672334298459,555.2473544362642 L384.20693216461746,547.1565873416412 M394.0423987356187,550.955627312256 L394.46471783873915,553.140403690749 M394.46471783873915,553.140403690749 L394.0972383114236,554.971254204278 M394.0972383114236,554.971254204278 L393.5238812076622,556.0268841628285 M393.5238812076622,556.0268841628285 L392.6858678587548,557.0345116340392 M398.4019986564544,553.3905607418476 L394.0423987356187,550.955627312256 M404.62737073112226,549.7983783298955 L398.4019986564544,553.3905607418476 M367.8466981593748,528.2500602709181 L404.62737073112226,549.7983783298955 M361.44854105395757,531.9289630717976 L367.8466981593748,528.2500602709181 M387.54173726905503,547.2252874864114 L361.44854105395757,531.9289630717976 M384.2672334298459,555.2473544362642 L386.75769777578137,553.45638234701 M386.75769777578137,553.45638234701 L387.98437730215534,551.9418268338588 M387.98437730215534,551.9418268338588 L388.4894962846071,550.4885326987618 M388.4894962846071,550.4885326987618 L388.38841040951843,548.9862959750287 M388.38841040951843,548.9862959750287 L388.0622806377528,548.1136320640145 M388.0622806377528,548.1136320640145 L387.54173726905503,547.2252874864114 M394.0423987356187,550.955627312256 L393.9854091618341,542.8662746368819 M536.6643009318879,469.5374827925229 L539.0899759675177,472.21037237585693 M539.0899759675177,472.21037237585693 L539.0818632916779,464.1471528450953 M539.0899759675177,472.21037237585693 L534.0026595791343,475.1458705653947 M527.747382801656,468.4495044196102 L527.439702624649,468.10940091644176 M525.6945320552759,467.83922856970565 L527.747382801656,468.4495044196102 M511.78067543348664,487.96846488574016 L487.1179648849675,461.8671029402584 M518.1101996332387,484.31618430978966 L511.78067543348664,487.96846488574016 M497.09615941893685,463.9238196351732 L518.1101996332387,484.31618430978966 M534.0026595791343,475.1458705653947 L497.09615941893685,463.9238196351732 M527.7354806124716,460.38754160324453 L527.4276979107785,460.0475517861474 M527.747382801656,468.4495044196102 L527.7354806124716,460.38754160324453 M525.6819441964775,459.7774697542303 L527.7354806124716,460.38754160324453 M511.78067543348664,487.96846488574016 L511.76340736612246,479.89998822504657 M534.0026595791343,475.1458705653947 L533.9928431986447,467.081670666647 M497.09615941893685,463.9238196351732 L497.0740182607435,455.86337013994773 M518.1101996332387,484.31618430978966 L518.0950556513396,476.24892487825355 M387.54173726905503,547.2252874864114 L387.4825777140518,539.137165043687 M361.44854105395757,531.9289630717976 L361.3806866865211,523.8458932835094 M367.8466981593748,528.2500602709181 L367.78101401795936,520.1682076253511 M404.62737073112226,549.7983783298955 L404.5739492187072,541.7094072223642 M398.4019986564544,553.3905607418476 L398.3464654163095,545.3004054631804 M410.70783377857924,546.5273501875656 L404.8521195019064,543.0986523598543 M404.8521195019064,543.0986523598543 L404.7988030750567,535.0118917427499 M410.70783377857924,546.5273501875656 L410.6564726365316,538.4394580039408 M414.0178082418979,545.171586971536 L412.44271807769326,545.9710246213967 M412.44271807769326,545.9710246213967 L411.5427690884038,546.3107177150316 M411.5427690884038,546.3107177150316 L410.70783377857924,546.5273501875656 M414.0178082418979,545.171586971536 L413.967566465062,537.0841421499591 M404.8521195019064,543.0986523598543 L408.2344709485087,541.4248757864968 M408.2344709485087,541.4248757864968 L408.18229950403213,533.3386677992678 M417.9900618524864,537.1429070232032 L418.4147428677928,539.4211368228663 M418.4147428677928,539.4211368228663 L417.9781903593299,541.3234144216623 M417.9781903593299,541.3234144216623 L416.9218080744183,542.9153555701329 M416.9218080744183,542.9153555701329 L415.6611732088122,544.0781400511701 M415.6611732088122,544.0781400511701 L414.0178082418979,545.171586971536 M417.9900618524864,537.1429070232032 L417.94118888076673,529.0581135177916 M408.2344709485087,541.4248757864968 L410.7185731317581,539.6379763577645 M410.7185731317581,539.6379763577645 L411.94087333148195,538.12686446762 M411.94087333148195,538.12686446762 L412.4425546397506,536.676874263425 M412.4425546397506,536.676874263425 L412.33862414852064,535.1780523222437 M412.33862414852064,535.1780523222437 L412.0111459573277,534.3073718979572 M412.0111459573277,534.3073718979572 L411.48944426591254,533.4210463016634 M411.48944426591254,533.4210463016634 L411.4384013047337,525.3374830804431 M422.34949830060725,539.5723044191452 L417.9900618524864,537.1429070232032 M422.34949830060725,539.5723044191452 L422.3020815763316,531.4867082753714 M411.48944426591254,533.4210463016634 L385.3957413086378,518.1594634114073 M385.3957413086378,518.1594634114073 L385.33600302390755,510.0809530283592 M428.56071712169637,535.9882887589899 L422.34949830060725,539.5723044191452 M428.56071712169637,535.9882887589899 L428.5154025663719,527.9038768376934 M385.3957413086378,518.1594634114073 L391.7793780488175,514.4889097353556 M391.7793780488175,514.4889097353556 L391.7218001922776,506.4116165326044 M391.7793780488175,514.4889097353556 L428.56071712169637,535.9882887589899 M430.23804595831973,497.2670650705922 L435.10805913519687,497.6414106001514 M435.10805913519687,497.6414106001514 L439.7889337040574,498.63229246692333 M439.7889337040574,498.63229246692333 L444.03377410519613,500.1332308503276 M444.03377410519613,500.1332308503276 L448.1112578776366,502.1840050708142 M448.1112578776366,502.1840050708142 L448.072624049374,494.11079770371697 M430.23804595831973,497.2670650705922 L430.19343820756774,489.19549271641137 M448.1112578776366,502.1840050708142 L449.2670260986663,502.85705637279915 M449.2670260986663,502.85705637279915 L449.2287776176854,494.78362530254094 M413.0171415042894,501.4912363699262 L417.36587989795544,499.4254695161647 M417.36587989795544,499.4254695161647 L422.0319823870867,498.04617575610547 M422.0319823870867,498.04617575610547 L426.03115590622485,497.4331186517717 M426.03115590622485,497.4331186517717 L430.23804595831973,497.2670650705922 M413.0171415042894,501.4912363699262 L412.96674511526294,493.41825928571 M449.2670260986663,502.85705637279915 L453.4839390385034,505.79648533733496 M453.4839390385034,505.79648533733496 L455.46102160075645,507.7416697543517 M455.46102160075645,507.7416697543517 L456.93132642302226,509.77006270814786 M456.93132642302226,509.77006270814786 L456.8956271771915,501.69433540368084 M406.0569316295978,513.7154012515578 L405.5677190801167,510.7724132025955 M405.5677190801167,510.7724132025955 L406.22150300449033,507.9711786484782 M406.22150300449033,507.9711786484782 L408.01750161011955,505.31150564491236 M408.01750161011955,505.31150564491236 L410.17891565113814,503.35947978816006 M410.17891565113814,503.35947978816006 L413.0171415042894,501.4912363699262 M406.0569316295978,513.7154012515578 L406.0041486262421,505.63836464466647 M456.93132642302226,509.77006270814786 L457.99666762199104,512.2413774076708 M457.99666762199104,512.2413774076708 L458.27191450511054,514.6872576127796 M458.27191450511054,514.6872576127796 L457.7565864301122,517.1076719573791 M457.7565864301122,517.1076719573791 L457.7211425484446,509.0295102791395 M412.9397941597048,513.2196144573617 L406.0569316295978,513.7154012515578 M412.9397941597048,513.2196144573617 L412.8893229325829,505.1427423351895 M457.7565864301122,517.1076719573791 L456.5043867160998,519.3989139505445 M456.5043867160998,519.3989139505445 L454.5691098921113,521.4571410090563 M454.5691098921113,521.4571410090563 L451.9505198060672,523.282115122607 M451.9505198060672,523.282115122607 L451.91310794418985,515.2019072818156 M413.43978433551547,508.75935977783723 L412.8550036109072,510.6972399061875 M412.8550036109072,510.6972399061875 L412.7840696680397,511.9445276004468 M412.7840696680397,511.9445276004468 L412.9397941597048,513.2196144573617 M413.43978433551547,508.75935977783723 L413.38949942305703,500.68396802463803 M451.9505198060672,523.282115122607 L447.73326308907554,525.2786341205353 M447.73326308907554,525.2786341205353 L443.7330698425369,526.4460227864226 M443.7330698425369,526.4460227864226 L439.96757094331167,526.9864948068284 M439.96757094331167,526.9864948068284 L437.9651132919945,527.076260967622 M437.9651132919945,527.076260967622 L435.9211991762967,527.0375059743851 M435.9211991762967,527.0375059743851 L435.87839077423007,518.9560546593996 M417.79788169343385,504.6786296050187 L415.81419027672365,505.99455191899585 M415.81419027672365,505.99455191899585 L414.3614367500786,507.35478537889315 M414.3614367500786,507.35478537889315 L413.43978433551547,508.75935977783723 M417.79788169343385,504.6786296050187 L417.74907511313074,496.60459322139144 M435.9211991762967,527.0375059743851 L431.40467470860483,526.4999846545485 M431.40467470860483,526.4999846545485 L426.8819586000776,525.3379606034664 M426.8819586000776,525.3379606034664 L422.61772269041194,523.6729877818966 M422.61772269041194,523.6729877818966 L418.34921181028335,521.454936111762 M418.34921181028335,521.454936111762 L418.30052266090513,513.3753335638357 M428.9711902934481,502.12462178697103 L425.26776375917837,502.27960977441796 M425.26776375917837,502.27960977441796 L422.1923879736207,502.8669573225991 M422.1923879736207,502.8669573225991 L419.9178876471726,503.6381869705278 M419.9178876471726,503.6381869705278 L417.79788169343385,504.6786296050187 M428.9711902934481,502.12462178697103 L428.92613989931465,494.051434158398 M418.34921181028335,521.454936111762 L415.7317990488191,519.9260902734102 M415.7317990488191,519.9260902734102 L415.6822372595983,511.8469943311429 M440.9694018433528,505.3915684737359 L437.15834943004734,503.65557710950145 M437.15834943004734,503.65557710950145 L433.15914242952124,502.56671133118164 M433.15914242952124,502.56671133118164 L431.0887987679548,502.2648332551755 M431.0887987679548,502.2648332551755 L428.9711902934481,502.12462178697103 M440.9694018433528,505.3915684737359 L440.92836279501023,497.3172952287931 M415.7317990488191,519.9260902734102 L440.9694018433528,505.3915684737359 M455.657616178957,499.17598546081086 L455.113707458827,498.8594388429661 M455.113707458827,498.8594388429661 L455.0774312073015,490.7873368356088 M455.657616178957,499.17598546081086 L455.62152127982563,491.1037781808945 M473.40032929766744,505.0251866161825 L468.1256083540553,504.21215096252615 M468.1256083540553,504.21215096252615 L462.87295123997364,502.62850240768955 M462.87295123997364,502.62850240768955 L459.25962201438665,501.0856499429123 M459.25962201438665,501.0856499429123 L455.657616178957,499.17598546081086 M473.40032929766744,505.0251866161825 L473.37016665015744,496.9510350916066 M455.113707458827,498.8594388429661 L450.29811226300853,495.5531769319696 M450.29811226300853,495.5531769319696 L447.33935494021307,492.51712650207395 M447.33935494021307,492.51712650207395 L446.17219529408715,490.633629761838 M446.17219529408715,490.633629761838 L445.4910238879985,488.7288143392193 M445.4910238879985,488.7288143392193 L445.451555581806,480.6600843628257 M489.0949878803484,501.8475075048525 L485.25106332401015,503.6293720414811 M485.25106332401015,503.6293720414811 L481.51465336660567,504.6465992246305 M481.51465336660567,504.6465992246305 L477.9279983265063,505.08682988126674 M477.9279983265063,505.08682988126674 L475.7013357018617,505.1351791046912 M475.7013357018617,505.1351791046912 L473.40032929766744,505.0251866161825 M489.0949878803484,501.8475075048525 L489.07009471044364,493.7744119894134 M445.4910238879985,488.7288143392193 L445.411179012774,486.02435052763894 M445.411179012774,486.02435052763894 L446.30119766625114,483.76814851429594 M446.30119766625114,483.76814851429594 L447.88091757944653,481.88143966427 M447.88091757944653,481.88143966427 L449.23914888705076,480.7739799471963 M449.23914888705076,480.7739799471963 L450.8840028720597,479.7194281815912 M450.8840028720597,479.7194281815912 L450.8463686647293,471.6537018038715 M494.95554333703956,492.98654961859 L494.884542655955,495.5741794848798 M494.884542655955,495.5741794848798 L493.8778245943141,497.7723170563075 M493.8778245943141,497.7723170563075 L492.2077151511045,499.6446268587964 M492.2077151511045,499.6446268587964 L490.7933402468607,500.76578410563275 M490.7933402468607,500.76578410563275 L489.0949878803484,501.8475075048525 M494.95554333703956,492.98654961859 L494.93263169021543,484.91640174009376 M450.8840028720597,479.7194281815912 L454.8991551778495,477.84468341086523 M454.8991551778495,477.84468341086523 L458.7377325627706,476.7697331539285 M458.7377325627706,476.7697331539285 L462.3750686325295,476.29798739905567 M462.3750686325295,476.29798739905567 L464.4965440811932,476.2389491120669 M464.4965440811932,476.2389491120669 L466.67294105119004,476.32835431444977 M466.67294105119004,476.32835431444977 L466.6405994063015,468.2637596366587 M514.4799288919496,504.3221916765285 L494.95554333703956,492.98654961859 M514.4799288919496,504.3221916765285 L514.4635425391389,496.24827372365263 M466.67294105119004,476.32835431444977 L462.7385659239627,473.68779298863143 M462.7385659239627,473.68779298863143 L462.70491544948004,465.6240799841958 M520.8172053463609,500.6600160900665 L514.4799288919496,504.3221916765285 M520.8172053463609,500.6600160900665 L520.8029482858731,492.5873153464461 M462.7385659239627,473.68779298863143 L468.56176224088415,470.33948926813423 M468.56176224088415,470.33948926813423 L468.53006821571944,462.27689480512686 M468.56176224088415,470.33948926813423 L520.8172053463609,500.6600160900665 M446.7751646609373,520.2635944752869 L448.7268905368942,518.8482840517047 M448.7268905368942,518.8482840517047 L449.86547679303146,517.4358323307856 M449.86547679303146,517.4358323307856 L450.35355286759307,516.2171988810185 M450.35355286759307,516.2171988810185 L450.4706174181283,514.9153733409646 M450.4706174181283,514.9153733409646 L449.89531734211835,512.8164009622456 M449.89531734211835,512.8164009622456 L448.38181530751126,510.6851223324281 M448.38181530751126,510.6851223324281 L445.930618891269,508.521571834883 M445.930618891269,508.521571834883 L427.27466939585497,519.270988739657 M427.27466939585497,519.270988739657 L427.75075258390564,519.5489019488385 M427.75075258390564,519.5489019488385 L431.1212758640894,521.0368367057125 M431.1212758640894,521.0368367057125 L434.4717960400138,521.9800832519363 M434.4717960400138,521.9800832519363 L436.13941195366726,522.247363143913 M436.13941195366726,522.247363143913 L437.80185625971774,522.3783870598679 M437.80185625971774,522.3783870598679 L440.4190359271457,522.2985670073152 M440.4190359271457,522.2985670073152 L442.89254085584855,521.8553592031374 M442.89254085584855,521.8553592031374 L444.88610960109565,521.1912536999844 M444.88610960109565,521.1912536999844 L446.7751646609373,520.2635944752869 M462.1799692288082,495.61579121552296 L466.4177784947385,497.75824774399615 M466.4177784947385,497.75824774399615 L470.5637278132132,499.202363322583 M470.5637278132132,499.202363322583 L472.6020198529851,499.662376671892 M472.6020198529851,499.662376671892 L474.6170651010349,499.947637193877 M474.6170651010349,499.947637193877 L477.46077764672737,500.0410071044169 M477.46077764672737,500.0410071044169 L479.8878775732329,499.79137897673667 M479.8878775732329,499.79137897673667 L481.9649935426198,499.2964809747966 M481.9649935426198,499.2964809747966 L483.68433747391134,498.65988684544726 M483.68433747391134,498.65988684544726 L485.32704561094897,497.8307767734988 M485.32704561094897,497.8307767734988 L487.7169758512175,496.09933557966644 M487.7169758512175,496.09933557966644 L488.93253095725845,494.59489855553835 M488.93253095725845,494.59489855553835 L489.4834214238,493.1205928307823 M489.4834214238,493.1205928307823 L489.4819826121967,491.56816593798754 M489.4819826121967,491.56816593798754 L489.15407480176975,490.439054245332 M489.15407480176975,490.439054245332 L488.5576055597062,489.2719777899992 M488.5576055597062,489.2719777899992 L472.6478907559499,480.0349735446127 M472.6478907559499,480.0349735446127 L468.689879411295,479.5349311488942 M468.689879411295,479.5349311488942 L465.3673434207237,479.582139769302 M465.3673434207237,479.582139769302 L462.5708699992091,480.0273967189172 M462.5708699992091,480.0273967189172 L460.099062030719,480.79798457548833 M460.099062030719,480.79798457548833 L457.7904920802886,481.9088638867818 M457.7904920802886,481.9088638867818 L455.72960416789715,483.38920406120326 M455.72960416789715,483.38920406120326 L454.56264481494134,484.83008459861907 M454.56264481494134,484.83008459861907 L454.06971734205445,486.21488380256056 M454.06971734205445,486.21488380256056 L454.02870719165946,487.10559045448383 M454.02870719165946,487.10559045448383 L454.18645926727277,488.0277118282142 M454.18645926727277,488.0277118282142 L455.1468055444236,489.95874389153926 M455.1468055444236,489.95874389153926 L456.9929977937768,491.97682578304756 M456.9929977937768,491.97682578304756 L459.26473821101206,493.7646666899659 M459.26473821101206,493.7646666899659 L462.1799692288082,495.61579121552296 M450.4706174181283,514.9153733409646 L450.4327347313873,506.83793868168055 M450.4327347313873,506.83793868168055 L450.175354326116,508.60781192348725 M450.175354326116,508.60781192348725 L449.29910377894305,510.1192877468757 M449.29910377894305,510.1192877468757 L448.1752459883668,511.21372540883874 M448.1752459883668,511.21372540883874 L446.73602446836276,512.184386684875 M446.7751646609373,520.2635944752869 L446.73602446836276,512.184386684875 M445.930618891269,508.521571834883 L445.8912333632312,500.44625903501105 M445.8912333632312,500.44625903501105 L448.1495815140232,502.4039385586641 M448.1495815140232,502.4039385586641 L449.7587611565691,504.5480189113541 M449.7587611565691,504.5480189113541 L450.2302833438539,505.6808098391817 M450.2302833438539,505.6808098391817 L450.4327347313873,506.83793868168055 M427.27466939585497,519.270988739657 L427.2289855512721,511.19210991460295 M445.8912333632312,500.44625903501105 L427.2289855512721,511.19210991460295 M427.75075258390564,519.5489019488385 L427.7052275289201,511.4699310134152 M427.2289855512721,511.19210991460295 L427.7052275289201,511.4699310134152 M437.80185625971774,522.3783870598679 L437.75969586912413,514.2984785755688 M437.75969586912413,514.2984785755688 L434.77150271552364,513.9662857732568 M434.77150271552364,513.9662857732568 L431.96343928415627,513.2591436783669 M431.96343928415627,513.2591436783669 L429.75257355223914,512.4370551515264 M429.75257355223914,512.4370551515264 L427.7052275289201,511.4699310134152 M446.73602446836276,512.184386684875 L444.1123849234016,513.3909957014167 M444.1123849234016,513.3909957014167 L441.6637488791797,514.0370063779264 M441.6637488791797,514.0370063779264 L439.7340448921374,514.2728673647487 M439.7340448921374,514.2728673647487 L437.75969586912413,514.2984785755688 M474.6170651010349,499.947637193877 L474.58732295634866,491.8751733122993 M474.58732295634866,491.8751733122993 L470.8770754287758,491.2196802998242 M470.8770754287758,491.2196802998242 L467.46153802429706,490.12481440201344 M467.46153802429706,490.12481440201344 L464.6989097459117,488.9127315378916 M464.6989097459117,488.9127315378916 L462.1460704176992,487.54476825418385 M462.1799692288082,495.61579121552296 L462.1460704176992,487.54476825418385 M485.32704561094897,497.8307767734988 L485.30089794673506,489.7590169022398 M485.30089794673506,489.7590169022398 L482.51886478544714,491.03372856721376 M482.51886478544714,491.03372856721376 L479.9120331140846,491.709905681569 M479.9120331140846,491.709905681569 L477.311264246312,491.97257348251657 M477.311264246312,491.97257348251657 L475.94598684951336,491.96771968338675 M475.94598684951336,491.96771968338675 L474.58732295634866,491.8751733122993 M488.5576055597062,489.2719777899992 L488.5325583116587,481.20306687454723 M488.5325583116587,481.20306687454723 L489.4690546022324,483.5692560292297 M489.4690546022324,483.5692560292297 L489.39693401885916,485.3346907210473 M489.39693401885916,485.3346907210473 L488.6607680329116,486.91349819631375 M488.6607680329116,486.91349819631375 L487.48068989039643,488.2218709670026 M487.48068989039643,488.2218709670026 L486.4621281506078,489.02286988524395 M486.4621281506078,489.02286988524395 L485.30089794673506,489.7590169022398 M472.6478907559499,480.0349735446127 L472.61753863362344,471.96914189263805 M488.5325583116587,481.20306687454723 L472.61753863362344,471.96914189263805 M457.7904920802886,481.9088638867818 L457.75516259292624,473.84240716924324 M457.75516259292624,473.84240716924324 L460.55312597599254,472.5480473974784 M460.55312597599254,472.5480473974784 L463.16302452090235,471.8256656918511 M463.16302452090235,471.8256656918511 L465.77215543820455,471.4824500034294 M465.77215543820455,471.4824500034294 L468.44980967918184,471.45870156624176 M468.44980967918184,471.45870156624176 L470.55825139618594,471.64094258907943 M470.55825139618594,471.64094258907943 L472.61753863362344,471.96914189263805 M454.18645926727277,488.0277118282142 L454.149905019995,479.9592154278396 M454.149905019995,479.9592154278396 L454.03291513115744,478.14832389961833 M454.03291513115744,478.14832389961833 L454.5535370994205,476.7148842650565 M454.5535370994205,476.7148842650565 L455.5300454339548,475.4788256696014 M455.5300454339548,475.4788256696014 L456.54888500267566,474.6207085839086 M456.54888500267566,474.6207085839086 L457.75516259292624,473.84240716924324 M462.1460704176992,487.54476825418385 L457.62382608308747,484.47968468272506 M457.62382608308747,484.47968468272506 L455.3188736003817,482.1708404097611 M455.3188736003817,482.1708404097611 L454.60812902743635,481.08497949579146 M454.60812902743635,481.08497949579146 L454.149905019995,479.9592154278396" stroke="black"  stroke-width="4"  fill="red"/></svg>